<svg xmlns="http://www.w3.org/2000/svg" viewBox="0 0 128 128" role="img" aria-label="Jasmine flower">
  <defs>
    <filter id="softShadow" x="-20%" y="-20%" width="140%" height="150%">
      <feDropShadow dx="0" dy="7" stdDeviation="5" flood-color="#57303d" flood-opacity="0.16"/>
    </filter>
  </defs>
  <g filter="url(#softShadow)">
    <path fill="#5f9b75" d="M62 68c-7 12-10 27-8 44 1 6 10 6 10 0-2-15 1-28 8-39 3-5-7-10-10-5z"/>
    <path fill="#79b46e" d="M62 92c-13-8-25-8-35 2 11 8 24 7 35-2z"/>
    <path fill="#79b46e" d="M68 82c9-12 21-16 35-10-8 12-21 16-35 10z"/>
    <g transform="translate(64 52)">
      <path fill="#fffdf8" stroke="#f2dbe2" stroke-width="3" d="M0-10C17-31 37-24 32-3 53 2 52 24 31 28 32 49 11 56 0 38-12 56-33 49-32 28-53 24-53 2-32-3-37-24-17-31 0-10z"/>
      <circle r="13" fill="#fff2a9" stroke="#e8c45f" stroke-width="3"/>
      <circle cx="-5" cy="-2" r="2" fill="#c69f37"/>
      <circle cx="5" cy="-2" r="2" fill="#c69f37"/>
      <circle cx="0" cy="5" r="2" fill="#c69f37"/>
    </g>
  </g>
</svg>
